<mxfile host="app.diagrams.net" modified="2021-02-10T11:41:22.194Z" agent="5.0 (Windows NT 10.0; Win64; x64) AppleWebKit/537.36 (KHTML, like Gecko) Chrome/87.0.4280.141 Safari/537.36" etag="WUJ-Py6WSKrp54wKOLR9" version="14.2.9" type="github">
  <diagram id="C5RBs43oDa-KdzZeNtuy" name="Page-1">
    <mxGraphModel dx="1858" dy="757" grid="1" gridSize="10" guides="1" tooltips="1" connect="1" arrows="1" fold="1" page="1" pageScale="1" pageWidth="827" pageHeight="1169" math="0" shadow="0">
      <root>
        <mxCell id="WIyWlLk6GJQsqaUBKTNV-0" />
        <mxCell id="WIyWlLk6GJQsqaUBKTNV-1" parent="WIyWlLk6GJQsqaUBKTNV-0" />
        <mxCell id="WIyWlLk6GJQsqaUBKTNV-2" value="" style="rounded=0;html=1;jettySize=auto;orthogonalLoop=1;fontSize=11;endArrow=block;endFill=0;endSize=8;strokeWidth=1;shadow=0;labelBackgroundColor=none;edgeStyle=orthogonalEdgeStyle;entryX=-0.03;entryY=0.59;entryDx=0;entryDy=0;entryPerimeter=0;" parent="WIyWlLk6GJQsqaUBKTNV-1" edge="1" target="7_HCONuBHNa6cHCysJDs-55">
          <mxGeometry relative="1" as="geometry">
            <mxPoint x="180" y="70" as="sourcePoint" />
            <mxPoint x="240" y="70" as="targetPoint" />
          </mxGeometry>
        </mxCell>
        <mxCell id="gGnMCyvagH3UXZfCAkN4-2" style="edgeStyle=orthogonalEdgeStyle;rounded=0;orthogonalLoop=1;jettySize=auto;html=1;exitX=1;exitY=0.5;exitDx=0;exitDy=0;entryX=0;entryY=0.5;entryDx=0;entryDy=0;" parent="WIyWlLk6GJQsqaUBKTNV-1" edge="1">
          <mxGeometry relative="1" as="geometry">
            <mxPoint x="350" y="70" as="sourcePoint" />
            <mxPoint x="430" y="70" as="targetPoint" />
          </mxGeometry>
        </mxCell>
        <mxCell id="gGnMCyvagH3UXZfCAkN4-8" style="edgeStyle=orthogonalEdgeStyle;rounded=0;orthogonalLoop=1;jettySize=auto;html=1;exitX=0.5;exitY=1;exitDx=0;exitDy=0;" parent="WIyWlLk6GJQsqaUBKTNV-1" target="gGnMCyvagH3UXZfCAkN4-7" edge="1">
          <mxGeometry relative="1" as="geometry">
            <mxPoint x="480" y="110" as="sourcePoint" />
          </mxGeometry>
        </mxCell>
        <mxCell id="gGnMCyvagH3UXZfCAkN4-16" style="edgeStyle=orthogonalEdgeStyle;rounded=0;orthogonalLoop=1;jettySize=auto;html=1;" parent="WIyWlLk6GJQsqaUBKTNV-1" source="Wtq3ipFGJ2Md6ntwvhvx-0" edge="1">
          <mxGeometry relative="1" as="geometry">
            <mxPoint x="480" y="600" as="targetPoint" />
          </mxGeometry>
        </mxCell>
        <mxCell id="gGnMCyvagH3UXZfCAkN4-7" value="Enter disease, time elapsed Dx, IBD Provider" style="rounded=1;whiteSpace=wrap;html=1;absoluteArcSize=1;arcSize=14;strokeWidth=2;fillColor=#fff2cc;strokeColor=#d6b656;" parent="WIyWlLk6GJQsqaUBKTNV-1" vertex="1">
          <mxGeometry x="430" y="150" width="100" height="60" as="geometry" />
        </mxCell>
        <mxCell id="7_HCONuBHNa6cHCysJDs-40" style="edgeStyle=orthogonalEdgeStyle;rounded=0;orthogonalLoop=1;jettySize=auto;html=1;entryX=1;entryY=0.5;entryDx=0;entryDy=0;" parent="WIyWlLk6GJQsqaUBKTNV-1" source="gGnMCyvagH3UXZfCAkN4-11" target="7_HCONuBHNa6cHCysJDs-39" edge="1">
          <mxGeometry relative="1" as="geometry" />
        </mxCell>
        <mxCell id="gGnMCyvagH3UXZfCAkN4-11" value="Home" style="rounded=1;whiteSpace=wrap;html=1;absoluteArcSize=1;arcSize=14;strokeWidth=2;fillColor=#fff2cc;strokeColor=#d6b656;" parent="WIyWlLk6GJQsqaUBKTNV-1" vertex="1">
          <mxGeometry x="210" y="190" width="100" height="100" as="geometry" />
        </mxCell>
        <mxCell id="7_HCONuBHNa6cHCysJDs-32" style="edgeStyle=orthogonalEdgeStyle;rounded=0;orthogonalLoop=1;jettySize=auto;html=1;entryX=0.5;entryY=0;entryDx=0;entryDy=0;" parent="WIyWlLk6GJQsqaUBKTNV-1" source="7_HCONuBHNa6cHCysJDs-1" target="7_HCONuBHNa6cHCysJDs-2" edge="1">
          <mxGeometry relative="1" as="geometry" />
        </mxCell>
        <mxCell id="7_HCONuBHNa6cHCysJDs-1" value="How Trellus works screen 1" style="rounded=1;whiteSpace=wrap;html=1;absoluteArcSize=1;arcSize=14;strokeWidth=2;fillColor=#fff2cc;strokeColor=#d6b656;" parent="WIyWlLk6GJQsqaUBKTNV-1" vertex="1">
          <mxGeometry x="430" y="240" width="100" height="60" as="geometry" />
        </mxCell>
        <mxCell id="7_HCONuBHNa6cHCysJDs-3" style="edgeStyle=orthogonalEdgeStyle;rounded=0;orthogonalLoop=1;jettySize=auto;html=1;entryX=0.5;entryY=0;entryDx=0;entryDy=0;entryPerimeter=0;" parent="WIyWlLk6GJQsqaUBKTNV-1" source="gGnMCyvagH3UXZfCAkN4-7" target="7_HCONuBHNa6cHCysJDs-1" edge="1">
          <mxGeometry relative="1" as="geometry">
            <mxPoint x="480" y="510" as="targetPoint" />
            <mxPoint x="480" y="220" as="sourcePoint" />
          </mxGeometry>
        </mxCell>
        <mxCell id="7_HCONuBHNa6cHCysJDs-2" value="How Trellus works screen 2" style="rounded=1;whiteSpace=wrap;html=1;absoluteArcSize=1;arcSize=14;strokeWidth=2;fillColor=#fff2cc;strokeColor=#d6b656;" parent="WIyWlLk6GJQsqaUBKTNV-1" vertex="1">
          <mxGeometry x="430" y="340" width="100" height="60" as="geometry" />
        </mxCell>
        <mxCell id="7_HCONuBHNa6cHCysJDs-5" value="Getting Know You Survey" style="rounded=1;whiteSpace=wrap;html=1;absoluteArcSize=1;arcSize=14;strokeWidth=2;fillColor=#fff2cc;strokeColor=#d6b656;" parent="WIyWlLk6GJQsqaUBKTNV-1" vertex="1">
          <mxGeometry x="430" y="560" width="100" height="80" as="geometry" />
        </mxCell>
        <mxCell id="7_HCONuBHNa6cHCysJDs-34" style="edgeStyle=orthogonalEdgeStyle;rounded=0;orthogonalLoop=1;jettySize=auto;html=1;entryX=0.5;entryY=0;entryDx=0;entryDy=0;entryPerimeter=0;" parent="WIyWlLk6GJQsqaUBKTNV-1" source="7_HCONuBHNa6cHCysJDs-6" target="7_HCONuBHNa6cHCysJDs-9" edge="1">
          <mxGeometry relative="1" as="geometry">
            <mxPoint x="480" y="990" as="targetPoint" />
          </mxGeometry>
        </mxCell>
        <mxCell id="7_HCONuBHNa6cHCysJDs-6" value="Skip for now?" style="strokeWidth=2;html=1;shape=mxgraph.flowchart.decision;whiteSpace=wrap;fillColor=#f8cecc;strokeColor=#b85450;" parent="WIyWlLk6GJQsqaUBKTNV-1" vertex="1">
          <mxGeometry x="425" y="694" width="110" height="100" as="geometry" />
        </mxCell>
        <mxCell id="7_HCONuBHNa6cHCysJDs-35" style="edgeStyle=orthogonalEdgeStyle;rounded=0;orthogonalLoop=1;jettySize=auto;html=1;entryX=0.5;entryY=0;entryDx=0;entryDy=0;entryPerimeter=0;" parent="WIyWlLk6GJQsqaUBKTNV-1" source="7_HCONuBHNa6cHCysJDs-9" target="7_HCONuBHNa6cHCysJDs-10" edge="1">
          <mxGeometry relative="1" as="geometry" />
        </mxCell>
        <mxCell id="7_HCONuBHNa6cHCysJDs-9" value="Patient symptom tracker" style="rounded=1;whiteSpace=wrap;html=1;absoluteArcSize=1;arcSize=14;strokeWidth=2;fillColor=#fff2cc;strokeColor=#d6b656;" parent="WIyWlLk6GJQsqaUBKTNV-1" vertex="1">
          <mxGeometry x="430" y="820" width="100" height="60" as="geometry" />
        </mxCell>
        <mxCell id="7_HCONuBHNa6cHCysJDs-36" style="edgeStyle=orthogonalEdgeStyle;rounded=0;orthogonalLoop=1;jettySize=auto;html=1;" parent="WIyWlLk6GJQsqaUBKTNV-1" source="7_HCONuBHNa6cHCysJDs-10" edge="1">
          <mxGeometry relative="1" as="geometry">
            <mxPoint x="480" y="1050" as="targetPoint" />
          </mxGeometry>
        </mxCell>
        <mxCell id="7_HCONuBHNa6cHCysJDs-10" value="Skip for now?" style="strokeWidth=2;html=1;shape=mxgraph.flowchart.decision;whiteSpace=wrap;fillColor=#f8cecc;strokeColor=#b85450;" parent="WIyWlLk6GJQsqaUBKTNV-1" vertex="1">
          <mxGeometry x="425" y="910" width="110" height="100" as="geometry" />
        </mxCell>
        <mxCell id="Wtq3ipFGJ2Md6ntwvhvx-7" style="edgeStyle=orthogonalEdgeStyle;rounded=0;orthogonalLoop=1;jettySize=auto;html=1;entryX=0.5;entryY=0;entryDx=0;entryDy=0;" edge="1" parent="WIyWlLk6GJQsqaUBKTNV-1" source="7_HCONuBHNa6cHCysJDs-11" target="7_HCONuBHNa6cHCysJDs-89">
          <mxGeometry relative="1" as="geometry" />
        </mxCell>
        <mxCell id="7_HCONuBHNa6cHCysJDs-11" value="Wellness Survey" style="rounded=1;whiteSpace=wrap;html=1;absoluteArcSize=1;arcSize=14;strokeWidth=2;fillColor=#fff2cc;strokeColor=#d6b656;" parent="WIyWlLk6GJQsqaUBKTNV-1" vertex="1">
          <mxGeometry x="430" y="1050" width="100" height="40" as="geometry" />
        </mxCell>
        <mxCell id="7_HCONuBHNa6cHCysJDs-42" style="edgeStyle=orthogonalEdgeStyle;rounded=0;orthogonalLoop=1;jettySize=auto;html=1;entryX=0.5;entryY=0;entryDx=0;entryDy=0;entryPerimeter=0;" parent="WIyWlLk6GJQsqaUBKTNV-1" source="7_HCONuBHNa6cHCysJDs-39" target="7_HCONuBHNa6cHCysJDs-41" edge="1">
          <mxGeometry relative="1" as="geometry">
            <Array as="points">
              <mxPoint x="110" y="430" />
            </Array>
          </mxGeometry>
        </mxCell>
        <mxCell id="7_HCONuBHNa6cHCysJDs-45" style="edgeStyle=orthogonalEdgeStyle;rounded=0;orthogonalLoop=1;jettySize=auto;html=1;entryX=1;entryY=0.5;entryDx=0;entryDy=0;" parent="WIyWlLk6GJQsqaUBKTNV-1" source="7_HCONuBHNa6cHCysJDs-39" target="7_HCONuBHNa6cHCysJDs-44" edge="1">
          <mxGeometry relative="1" as="geometry" />
        </mxCell>
        <mxCell id="7_HCONuBHNa6cHCysJDs-39" value="Enter GI Provider Appt." style="rounded=1;whiteSpace=wrap;html=1;absoluteArcSize=1;arcSize=14;strokeWidth=2;fillColor=#fff2cc;strokeColor=#d6b656;" parent="WIyWlLk6GJQsqaUBKTNV-1" vertex="1">
          <mxGeometry x="60" y="190" width="100" height="100" as="geometry" />
        </mxCell>
        <mxCell id="7_HCONuBHNa6cHCysJDs-43" style="edgeStyle=orthogonalEdgeStyle;rounded=0;orthogonalLoop=1;jettySize=auto;html=1;entryX=0.5;entryY=1;entryDx=0;entryDy=0;" parent="WIyWlLk6GJQsqaUBKTNV-1" source="7_HCONuBHNa6cHCysJDs-41" target="gGnMCyvagH3UXZfCAkN4-11" edge="1">
          <mxGeometry relative="1" as="geometry" />
        </mxCell>
        <mxCell id="7_HCONuBHNa6cHCysJDs-41" value="Skip for now?" style="strokeWidth=2;html=1;shape=mxgraph.flowchart.decision;whiteSpace=wrap;fillColor=#f8cecc;strokeColor=#b85450;" parent="WIyWlLk6GJQsqaUBKTNV-1" vertex="1">
          <mxGeometry x="60" y="440" width="100" height="100" as="geometry" />
        </mxCell>
        <mxCell id="7_HCONuBHNa6cHCysJDs-44" value="Schedule Appointment with Trellus Triad" style="rounded=1;whiteSpace=wrap;html=1;absoluteArcSize=1;arcSize=14;strokeWidth=2;fillColor=#fff2cc;strokeColor=#d6b656;" parent="WIyWlLk6GJQsqaUBKTNV-1" vertex="1">
          <mxGeometry x="-110" y="190" width="100" height="100" as="geometry" />
        </mxCell>
        <mxCell id="7_HCONuBHNa6cHCysJDs-54" value="User Registration Screen, Terms of Use, Privacy Policy, User Password" style="rounded=1;whiteSpace=wrap;html=1;absoluteArcSize=1;arcSize=14;strokeWidth=2;fillColor=#fff2cc;strokeColor=#d6b656;" parent="WIyWlLk6GJQsqaUBKTNV-1" vertex="1">
          <mxGeometry x="430" y="10" width="100" height="90" as="geometry" />
        </mxCell>
        <mxCell id="7_HCONuBHNa6cHCysJDs-55" value="User enters user name and access code" style="rounded=1;whiteSpace=wrap;html=1;absoluteArcSize=1;arcSize=14;strokeWidth=2;fillColor=#fff2cc;strokeColor=#d6b656;" parent="WIyWlLk6GJQsqaUBKTNV-1" vertex="1">
          <mxGeometry x="250" y="10" width="100" height="100" as="geometry" />
        </mxCell>
        <mxCell id="7_HCONuBHNa6cHCysJDs-56" value="Trellus &quot;Welcome&quot; email sent" style="rounded=1;whiteSpace=wrap;html=1;absoluteArcSize=1;arcSize=14;strokeWidth=2;fillColor=#fff2cc;strokeColor=#d6b656;" parent="WIyWlLk6GJQsqaUBKTNV-1" vertex="1">
          <mxGeometry x="80" y="10" width="100" height="100" as="geometry" />
        </mxCell>
        <mxCell id="7_HCONuBHNa6cHCysJDs-58" value="Patient enters email, password" style="rounded=1;whiteSpace=wrap;html=1;fillColor=#d5e8d4;strokeColor=#82b366;" parent="WIyWlLk6GJQsqaUBKTNV-1" vertex="1">
          <mxGeometry x="639" y="30" width="120" height="50" as="geometry" />
        </mxCell>
        <mxCell id="7_HCONuBHNa6cHCysJDs-72" value="" style="endArrow=none;dashed=1;html=1;dashPattern=1 3;strokeWidth=2;" parent="WIyWlLk6GJQsqaUBKTNV-1" edge="1">
          <mxGeometry width="50" height="50" relative="1" as="geometry">
            <mxPoint x="540" y="54" as="sourcePoint" />
            <mxPoint x="630" y="54" as="targetPoint" />
          </mxGeometry>
        </mxCell>
        <mxCell id="7_HCONuBHNa6cHCysJDs-76" value="" style="endArrow=none;dashed=1;html=1;dashPattern=1 3;strokeWidth=2;entryX=0.415;entryY=1.015;entryDx=0;entryDy=0;entryPerimeter=0;" parent="WIyWlLk6GJQsqaUBKTNV-1" target="7_HCONuBHNa6cHCysJDs-44" edge="1">
          <mxGeometry width="50" height="50" relative="1" as="geometry">
            <mxPoint x="-68" y="350" as="sourcePoint" />
            <mxPoint x="380" y="380" as="targetPoint" />
          </mxGeometry>
        </mxCell>
        <mxCell id="7_HCONuBHNa6cHCysJDs-87" style="edgeStyle=orthogonalEdgeStyle;rounded=0;orthogonalLoop=1;jettySize=auto;html=1;entryX=0.5;entryY=1;entryDx=0;entryDy=0;" parent="WIyWlLk6GJQsqaUBKTNV-1" source="7_HCONuBHNa6cHCysJDs-77" target="gGnMCyvagH3UXZfCAkN4-11" edge="1">
          <mxGeometry relative="1" as="geometry" />
        </mxCell>
        <mxCell id="7_HCONuBHNa6cHCysJDs-77" value="Patient uses calendar function to schedule appt." style="rounded=1;whiteSpace=wrap;html=1;fillColor=#d5e8d4;strokeColor=#82b366;" parent="WIyWlLk6GJQsqaUBKTNV-1" vertex="1">
          <mxGeometry x="-120" y="360" width="120" height="50" as="geometry" />
        </mxCell>
        <mxCell id="7_HCONuBHNa6cHCysJDs-83" value="No" style="endArrow=classic;html=1;exitX=0.5;exitY=1;exitDx=0;exitDy=0;" parent="WIyWlLk6GJQsqaUBKTNV-1" source="7_HCONuBHNa6cHCysJDs-5" edge="1">
          <mxGeometry relative="1" as="geometry">
            <mxPoint x="479.5" y="830" as="sourcePoint" />
            <mxPoint x="480" y="690" as="targetPoint" />
          </mxGeometry>
        </mxCell>
        <mxCell id="7_HCONuBHNa6cHCysJDs-84" value="No" style="edgeLabel;resizable=0;html=1;align=center;verticalAlign=middle;" parent="7_HCONuBHNa6cHCysJDs-83" connectable="0" vertex="1">
          <mxGeometry relative="1" as="geometry" />
        </mxCell>
        <mxCell id="7_HCONuBHNa6cHCysJDs-89" value="Patient Home Screen" style="rounded=1;whiteSpace=wrap;html=1;absoluteArcSize=1;arcSize=14;strokeWidth=2;fillColor=#fff2cc;strokeColor=#d6b656;" parent="WIyWlLk6GJQsqaUBKTNV-1" vertex="1">
          <mxGeometry x="430" y="1130" width="100" height="60" as="geometry" />
        </mxCell>
        <mxCell id="NDm0StQERf2xuom-DKIh-0" value="Notifiications" style="ellipse;whiteSpace=wrap;html=1;aspect=fixed;fillColor=#dae8fc;strokeColor=#6c8ebf;" parent="WIyWlLk6GJQsqaUBKTNV-1" vertex="1">
          <mxGeometry x="630" y="1650" width="80" height="80" as="geometry" />
        </mxCell>
        <mxCell id="I_p7_JZJX6vtq-w0ZKPo-0" value="Notifiications" style="ellipse;whiteSpace=wrap;html=1;aspect=fixed;fillColor=#dae8fc;strokeColor=#6c8ebf;" parent="WIyWlLk6GJQsqaUBKTNV-1" vertex="1">
          <mxGeometry x="639" y="1400" width="80" height="80" as="geometry" />
        </mxCell>
        <mxCell id="I_p7_JZJX6vtq-w0ZKPo-1" value="Notifiications" style="ellipse;whiteSpace=wrap;html=1;aspect=fixed;fillColor=#dae8fc;strokeColor=#6c8ebf;" parent="WIyWlLk6GJQsqaUBKTNV-1" vertex="1">
          <mxGeometry x="70" y="995" width="80" height="80" as="geometry" />
        </mxCell>
        <mxCell id="Wtq3ipFGJ2Md6ntwvhvx-2" style="edgeStyle=orthogonalEdgeStyle;rounded=0;orthogonalLoop=1;jettySize=auto;html=1;entryX=0.5;entryY=0;entryDx=0;entryDy=0;" edge="1" parent="WIyWlLk6GJQsqaUBKTNV-1" source="Wtq3ipFGJ2Md6ntwvhvx-0" target="7_HCONuBHNa6cHCysJDs-5">
          <mxGeometry relative="1" as="geometry" />
        </mxCell>
        <mxCell id="Wtq3ipFGJ2Md6ntwvhvx-0" value="How Trellus works screen 3" style="rounded=1;whiteSpace=wrap;html=1;absoluteArcSize=1;arcSize=14;strokeWidth=2;fillColor=#fff2cc;strokeColor=#d6b656;" vertex="1" parent="WIyWlLk6GJQsqaUBKTNV-1">
          <mxGeometry x="430" y="440" width="100" height="80" as="geometry" />
        </mxCell>
        <mxCell id="Wtq3ipFGJ2Md6ntwvhvx-1" style="edgeStyle=orthogonalEdgeStyle;rounded=0;orthogonalLoop=1;jettySize=auto;html=1;" edge="1" parent="WIyWlLk6GJQsqaUBKTNV-1" source="7_HCONuBHNa6cHCysJDs-2" target="Wtq3ipFGJ2Md6ntwvhvx-0">
          <mxGeometry relative="1" as="geometry">
            <mxPoint x="480" y="600" as="targetPoint" />
            <mxPoint x="480" y="520" as="sourcePoint" />
          </mxGeometry>
        </mxCell>
      </root>
    </mxGraphModel>
  </diagram>
</mxfile>
